<?xml version="1.0" encoding="utf-8"?>
<svg version="1.1" xmlns:xlink="http://www.w3.org/1999/xlink" width="30px" height="30px" xmlns="http://www.w3.org/2000/svg">
  <g transform="matrix(1 0 0 1 -154 -141 )">
    <path d="M 7.470703125 2.01171875  C 9.76888020833333 0.670572916666664  12.2786458333333 0  15 0  C 17.7213541666667 0  20.2311197916667 0.670572916666664  22.529296875 2.01171875  C 24.8274739583333 3.35286458333333  26.6471354166667 5.17252604166667  27.98828125 7.470703125  C 29.3294270833333 9.76888020833333  30 12.2786458333333  30 15  C 30 17.7213541666667  29.3294270833333 20.2311197916667  27.98828125 22.529296875  C 26.6471354166667 24.8274739583333  24.8274739583333 26.6471354166667  22.529296875 27.98828125  C 20.2311197916667 29.3294270833333  17.7213541666667 30  15 30  C 12.2786458333333 30  9.76888020833333 29.3294270833333  7.470703125 27.98828125  C 5.17252604166667 26.6471354166667  3.35286458333333 24.8274739583333  2.01171875 22.529296875  C 0.670572916666667 20.2311197916667  0 17.7213541666667  0 15  C 0 12.2786458333333  0.670572916666667 9.76888020833333  2.01171875 7.470703125  C 3.35286458333333 5.17252604166667  5.17252604166667 3.35286458333333  7.470703125 2.01171875  Z M 11.875 22.32421875  L 22.5 16.07421875  C 22.9166666666667 15.83984375  23.125 15.4817708333333  23.125 15  C 23.125 14.5182291666667  22.9166666666667 14.16015625  22.5 13.92578125  L 11.875 7.67578125  C 11.4713541666667 7.42838541666667  11.0546875 7.421875  10.625 7.65625  C 10.2083333333333 7.90364583333333  10 8.26822916666666  10 8.75  L 10 21.25  C 10 21.7317708333333  10.2083333333333 22.0963541666667  10.625 22.34375  C 10.8333333333333 22.4479166666667  11.0416666666667 22.5  11.25 22.5  C 11.4713541666667 22.5  11.6796875 22.44140625  11.875 22.32421875  Z " fill-rule="nonzero" fill="#000000" stroke="none" transform="matrix(1 0 0 1 154 141 )" />
  </g>
</svg>