<?xml version="1.0" encoding="utf-8"?>
<svg version="1.1" xmlns:xlink="http://www.w3.org/1999/xlink" width="42px" height="40px" xmlns="http://www.w3.org/2000/svg">
  <g transform="matrix(1 0 0 1 -742 -390 )">
    <path d="M 11.380198019802 10.8382838283828  C 12.0732673267327 10.1782178217822  12.419801980198 9.38173817381738  12.419801980198 8.44884488448845  C 12.419801980198 7.51595159515951  12.0732673267327 6.71947194719472  11.380198019802 6.05940594059406  C 10.6871287128713 5.3993399339934  9.85082508250825 5.06930693069307  8.87128712871287 5.06930693069307  C 7.89174917491749 5.06930693069307  7.05544554455446 5.3993399339934  6.36237623762376 6.05940594059406  C 5.66930693069307 6.71947194719472  5.32277227722772 7.51595159515951  5.32277227722772 8.44884488448845  C 5.32277227722772 9.38173817381738  5.66930693069307 10.1782178217822  6.36237623762376 10.8382838283828  C 7.05544554455446 11.4983498349835  7.89174917491749 11.8283828382838  8.87128712871287 11.8283828382838  C 9.85082508250825 11.8283828382838  10.6871287128713 11.4983498349835  11.380198019802 10.8382838283828  Z M 40.9742574257426 21.2541254125413  C 41.6580858085809 21.9405940594059  42 22.7414741474147  42 23.6567656765677  C 42 24.5896589658966  41.6580858085809 25.3817381738174  40.9742574257426 26.03300330033  L 27.3623762376238 39.023102310231  C 26.6415841584158 39.6743674367437  25.8006600660066 40  24.839603960396 40  C 23.8600660066007 40  23.0283828382838 39.6743674367437  22.3445544554455 39.023102310231  L 2.52277227722772 20.1188118811881  C 1.82046204620462 19.4675467546755  1.22442244224422 18.5786578657866  0.734653465346535 17.4521452145215  C 0.244884488448845 16.3256325632563  0 15.2959295929593  0 14.3630363036304  L 0 3.37953795379538  C 0 2.46424642464246  0.351155115511551 1.67216721672167  1.05346534653465 1.003300330033  C 1.75577557755776 0.334433443344331  2.58745874587459 0  3.54851485148515 0  L 15.0811881188119 0  C 16.0607260726073 0  17.1419141914191 0.23322332233223  18.3247524752475 0.699669966996699  C 19.5075907590759 1.16611661166116  20.4501650165017 1.73377337733773  21.1524752475248 2.4026402640264  L 40.9742574257426 21.2541254125413  Z " fill-rule="nonzero" fill="#bb18e9" stroke="none" fill-opacity="0.701960784313725" transform="matrix(1 0 0 1 742 390 )" />
  </g>
</svg>