<?xml version="1.0" encoding="utf-8"?>
<svg version="1.1" xmlns:xlink="http://www.w3.org/1999/xlink" width="52px" height="50px" xmlns="http://www.w3.org/2000/svg">
  <g transform="matrix(1 0 0 1 -738 -270 )">
    <path d="M 14.0897689768977 13.5478547854785  C 14.9478547854785 12.7227722772277  15.376897689769 11.7271727172717  15.376897689769 10.5610561056106  C 15.376897689769 9.39493949394939  14.9478547854785 8.3993399339934  14.0897689768977 7.57425742574258  C 13.2316831683168 6.74917491749175  12.1962596259626 6.33663366336634  10.983498349835 6.33663366336634  C 9.77073707370737 6.33663366336634  8.73531353135314 6.74917491749175  7.87722772277228 7.57425742574258  C 7.01914191419142 8.3993399339934  6.59009900990099 9.39493949394939  6.59009900990099 10.5610561056106  C 6.59009900990099 11.7271727172717  7.01914191419142 12.7227722772277  7.87722772277228 13.5478547854785  C 8.73531353135314 14.3729372937294  9.77073707370737 14.7854785478548  10.983498349835 14.7854785478548  C 12.1962596259626 14.7854785478548  13.2316831683168 14.3729372937294  14.0897689768977 13.5478547854785  Z M 50.7300330033003 26.5676567656766  C 51.5766776677668 27.4257425742574  52 28.4268426842684  52 29.5709570957096  C 52 30.7370737073707  51.5766776677668 31.7271727172717  50.7300330033003 32.5412541254125  L 33.8772277227723 48.7788778877888  C 32.9848184818482 49.5929592959296  31.9436743674367 50  30.753795379538 50  C 29.5410341034103 50  28.5113311331133 49.5929592959296  27.6646864686469 48.7788778877888  L 3.12343234323432 25.1485148514852  C 2.25390539053905 24.3344334433443  1.51595159515952 23.2233223322332  0.90957095709571 21.8151815181518  C 0.303190319031903 20.4070407040704  0 19.1199119911991  0 17.953795379538  L 0 4.22442244224422  C 0 3.08030803080308  0.434763476347635 2.09020902090209  1.3042904290429 1.25412541254125  C 2.17381738173817 0.418041804180413  3.2035203520352 0  4.39339933993399 0  L 18.6719471947195 0  C 19.8847084708471 0  21.2233223322332 0.291529152915287  22.6877887788779 0.874587458745874  C 24.1522552255226 1.45764576457645  25.3192519251925 2.16721672167216  26.1887788778878 3.003300330033  L 50.7300330033003 26.5676567656766  Z " fill-rule="nonzero" fill="#18e977" stroke="none" fill-opacity="0.701960784313725" transform="matrix(1 0 0 1 738 270 )" />
  </g>
</svg>