<?xml version="1.0" encoding="utf-8"?>
<svg version="1.1" xmlns:xlink="http://www.w3.org/1999/xlink" width="82px" height="80px" xmlns="http://www.w3.org/2000/svg">
  <g transform="matrix(1 0 0 1 -862 -270 )">
    <path d="M 22.2184818481848 21.6765676567657  C 23.5716171617162 20.3564356435644  24.2481848184819 18.7634763476348  24.2481848184819 16.8976897689769  C 24.2481848184819 15.031903190319  23.5716171617162 13.4389438943894  22.2184818481848 12.1188118811881  C 20.8653465346535 10.7986798679868  19.2325632563256 10.1386138613861  17.3201320132013 10.1386138613861  C 15.407700770077 10.1386138613861  13.7749174917492 10.7986798679868  12.4217821782178 12.1188118811881  C 11.0686468646865 13.4389438943894  10.3920792079208 15.031903190319  10.3920792079208 16.8976897689769  C 10.3920792079208 18.7634763476348  11.0686468646865 20.3564356435644  12.4217821782178 21.6765676567657  C 13.7749174917492 22.996699669967  15.407700770077 23.6567656765677  17.3201320132013 23.6567656765677  C 19.2325632563256 23.6567656765677  20.8653465346535 22.996699669967  22.2184818481848 21.6765676567657  Z M 79.9973597359736 42.5082508250825  C 81.3324532453245 43.8811881188119  82 45.4829482948295  82 47.3135313531353  C 82 49.1793179317932  81.3324532453245 50.7634763476348  79.9973597359736 52.0660066006601  L 53.4217821782178 78.046204620462  C 52.0145214521452 79.3487348734874  50.3727172717272 80  48.4963696369637 80  C 46.5839383938394 80  44.9601760176018 79.3487348734874  43.6250825082508 78.046204620462  L 4.92541254125413 40.2376237623762  C 3.55423542354235 38.9350935093509  2.39053905390539 37.1573157315731  1.43432343234323 34.9042904290429  C 0.478107810781078 32.6512651265126  0 30.5918591859186  0 28.7260726072607  L 0 6.75907590759076  C 0 4.92849284928493  0.685588558855886 3.34433443344334  2.05676567656766 2.006600660066  C 3.42794279427943 0.668866886688662  5.05170517051705 0  6.92805280528053 0  L 29.4442244224422 0  C 31.3566556655666 0  33.4675467546755 0.46644664466446  35.776897689769 1.3993399339934  C 38.0862486248625 2.33223322332233  39.9265126512651 3.46754675467546  41.2976897689769 4.80528052805281  L 79.9973597359736 42.5082508250825  Z " fill-rule="nonzero" fill="#e9a218" stroke="none" transform="matrix(1 0 0 1 862 270 )" />
  </g>
</svg>