<?xml version="1.0" encoding="utf-8"?>
<svg version="1.1" xmlns:xlink="http://www.w3.org/1999/xlink" width="62px" height="60px" xmlns="http://www.w3.org/2000/svg">
  <g transform="matrix(1 0 0 1 -758 -528 )">
    <path d="M 16.7993399339934 16.2574257425743  C 17.8224422442244 15.2673267326733  18.3339933993399 14.0726072607261  18.3339933993399 12.6732673267327  C 18.3339933993399 11.2739273927393  17.8224422442244 10.0792079207921  16.7993399339934 9.08910891089109  C 15.7762376237624 8.0990099009901  14.5416941694169 7.6039603960396  13.0957095709571 7.6039603960396  C 11.6497249724973 7.6039603960396  10.4151815181518 8.0990099009901  9.39207920792079 9.08910891089109  C 8.36897689768977 10.0792079207921  7.85742574257426 11.2739273927393  7.85742574257426 12.6732673267327  C 7.85742574257426 14.0726072607261  8.36897689768977 15.2673267326733  9.39207920792079 16.2574257425743  C 10.4151815181518 17.2475247524752  11.6497249724973 17.7425742574257  13.0957095709571 17.7425742574257  C 14.5416941694169 17.7425742574257  15.7762376237624 17.2475247524752  16.7993399339934 16.2574257425743  Z M 60.4858085808581 31.8811881188119  C 61.4952695269527 32.9108910891089  62 34.1122112211221  62 35.4851485148515  C 62 36.8844884488449  61.4952695269527 38.0726072607261  60.4858085808581 39.0495049504951  L 40.3920792079208 58.5346534653465  C 39.3280528052805 59.5115511551155  38.0866886688669 60  36.6679867986799 60  C 35.22200220022 60  33.9942794279428 59.5115511551155  32.9848184818482 58.5346534653465  L 3.72409240924092 30.1782178217822  C 2.68734873487349 29.2013201320132  1.80748074807481 27.8679867986799  1.08448844884488 26.1782178217822  C 0.361496149614961 24.4884488448845  0 22.9438943894389  0 21.5445544554455  L 0 5.06930693069307  C 0 3.6963696369637  0.518371837183718 2.50825082508251  1.55511551155116 1.5049504950495  C 2.59185918591859 0.501650165016496  3.81958195819582 0  5.23828382838284 0  L 22.2627062706271 0  C 23.7086908690869 0  25.3047304730473 0.349834983498345  27.0508250825083 1.04950495049505  C 28.7969196919692 1.74917491749174  30.1883388338834 2.60066006600659  31.2250825082508 3.6039603960396  L 60.4858085808581 31.8811881188119  Z " fill-rule="nonzero" fill="#239dc2" stroke="none" fill-opacity="0.698039215686274" transform="matrix(1 0 0 1 758 528 )" />
  </g>
</svg>