<?xml version="1.0" encoding="utf-8"?>
<svg version="1.1" xmlns:xlink="http://www.w3.org/1999/xlink" width="72px" height="70px" xmlns="http://www.w3.org/2000/svg">
  <g transform="matrix(1 0 0 1 -903 -488 )">
    <path d="M 19.5089108910891 18.96699669967  C 20.6970297029703 17.8118811881188  21.2910891089109 16.4180418041804  21.2910891089109 14.7854785478548  C 21.2910891089109 13.1529152915291  20.6970297029703 11.7590759075908  19.5089108910891 10.6039603960396  C 18.3207920792079 9.44884488448845  16.8871287128713 8.87128712871287  15.2079207920792 8.87128712871287  C 13.5287128712871 8.87128712871287  12.0950495049505 9.44884488448845  10.9069306930693 10.6039603960396  C 9.71881188118812 11.7590759075908  9.12475247524753 13.1529152915291  9.12475247524753 14.7854785478548  C 9.12475247524753 16.4180418041804  9.71881188118812 17.8118811881188  10.9069306930693 18.96699669967  C 12.0950495049505 20.1221122112211  13.5287128712871 20.6996699669967  15.2079207920792 20.6996699669967  C 16.8871287128713 20.6996699669967  18.3207920792079 20.1221122112211  19.5089108910891 18.96699669967  Z M 70.2415841584158 37.1947194719472  C 71.4138613861386 38.3960396039604  72 39.7975797579758  72 41.3993399339934  C 72 43.031903190319  71.4138613861386 44.4180418041804  70.2415841584158 45.5577557755776  L 46.9069306930693 68.2904290429043  C 45.6712871287129 69.4301430143014  44.229702970297 70  42.5821782178218 70  C 40.9029702970297 70  39.4772277227723 69.4301430143014  38.3049504950495 68.2904290429043  L 4.32475247524753 35.2079207920792  C 3.12079207920792 34.0682068206821  2.0990099009901 32.5126512651265  1.25940594059406 30.5412541254125  C 0.41980198019802 28.5698569856986  0 26.7678767876788  0 25.1353135313531  L 0 5.91419141914191  C 0 4.31243124312431  0.601980198019802 2.92629262926293  1.80594059405941 1.75577557755775  C 3.00990099009901 0.585258525852579  4.43564356435644 0  6.08316831683168 0  L 25.8534653465347 0  C 27.5326732673267 0  29.3861386138614 0.408140814081402  31.4138613861386 1.22442244224422  C 33.4415841584158 2.04070407040704  35.0574257425743 3.03410341034102  36.2613861386139 4.20462046204621  L 70.2415841584158 37.1947194719472  Z " fill-rule="nonzero" fill="#7a625b" stroke="none" fill-opacity="0.698039215686274" transform="matrix(1 0 0 1 903 488 )" />
  </g>
</svg>